<?xml version="1.0" encoding="UTF-8"?>
<svg id="Capa_1" data-name="Capa 1" xmlns="http://www.w3.org/2000/svg" viewBox="0 0 1558 205">
  <g>
    <path d="M242.56,117.84h-67.59v27.57h75.16l-3.39,23.54h-101.17V47.83h100.64v23.54h-71.25v22.94h67.59v23.54Z"/>
    <path d="M291.88,132.65c3.47,10.45,11.84,17.32,31.94,17.32,18.82,0,24.27-5.75,24.27-13.56,0-8.35-5.58-13.05-31.1-17.39-42.03-7.19-49.67-20.84-49.67-37.08,0-24.19,23.29-36.55,51.92-36.55,41.57,0,52.85,21.37,54.23,35.45h-29.43c-1.71-6-5.74-14.03-25.72-14.03-14,0-21.1,4.46-21.1,12.28,0,7,4.99,10.52,27.72,14.6,46.02,8.26,53.22,22.15,53.22,39.72,0,20.99-16.47,37.96-57.1,37.96-37.89,0-54.96-16.91-58.63-38.72h29.45Z"/>
    <path d="M430.11,71.23h-42.63v-23.41h114.53v23.41h-42.48v97.71h-29.41v-97.71Z"/>
    <path d="M617.79,117.84h-67.59v27.57h75.16l-3.39,23.54h-101.17V47.83h100.64v23.54h-71.25v22.94h67.59v23.54Z"/>
    <path d="M684.12,168.95l-49.36-121.12h32.52l21.33,57.67c8.04,21.82,11.45,33.54,13.56,41.26h.34c1.89-7,3.58-12.12,14.93-43.46l20.62-55.47h31.44l-50.22,121.12h-35.17Z"/>
    <path d="M798.56,141.46l-10.57,27.49h-30.23l48.78-121.12h37.69l51.28,121.12h-31.79l-11.26-27.49h-53.91ZM844.25,117.9c-11.27-27.76-16.76-41.91-19.66-51.16h-.17c-2.71,9.06-9.14,27.48-18.25,51.16h38.08Z"/>
    <path d="M911.34,168.95V47.83h34.81c34.03,51.94,47.6,70.83,55.2,85.23h.34c-1.18-12.72-1.01-35.38-1.01-55.31v-29.92h26.93v121.12h-32.63c-11.42-18.04-50.17-78.24-57.38-92.08h-.34c1.01,14.95,1.01,32.17,1.01,53.69v38.39h-26.93Z"/>
  </g>
  <path d="M58.86,95.1c14.5,0,18.92-3.22,18.92-17.37v-16.87c0-21.89,12.29-33.03,34-33.03h10.51v19.11h-2.08c-13.87,0-17.29,5.38-17.29,17.89v14.34c0,18.31-8.13,23.87-15.39,26.28,9.5,3.1,15.39,8.43,15.39,27.22v14.91c0,10.57,2.89,17.65,15.93,17.65h3.44v18.96h-10.66c-19.55,0-33.85-8.19-33.85-32.14v-18.25c0-13.76-4.02-17.22-18.92-17.22v-21.49Z"/>
  <path d="M1116.63,111.33c-14.5,0-18.92,3.23-18.92,17.37v16.87c0,21.89-12.29,33.03-34,33.03h-10.51v-19.11h2.08c13.87,0,17.29-5.38,17.29-17.89v-14.34c0-18.31,8.13-23.87,15.39-26.28-9.5-3.09-15.39-8.43-15.39-27.22v-14.91c0-10.57-2.89-17.65-15.93-17.65h-3.44v-18.96h10.66c19.55,0,33.85,8.19,33.85,32.14v18.25c0,13.76,4.02,17.22,18.92,17.22v21.49Z"/>
  <g>
    <path d="M1156.74,39.69h43.68c36.63,0,63.28,25.11,63.28,59.16,0,38.18-25.28,64.14-62.94,64.14h-44.02V39.69ZM1160.35,159.72h39.55c37.83,0,60.02-27,60.02-60.53s-26.31-56.23-59.84-56.23h-39.72v116.76Z"/>
    <path d="M1373.24,98.68h-76.7v61.05h83.58l-.86,3.27h-86.33V39.69h83.92v3.27h-80.31v52.45h76.7v3.27Z"/>
    <path d="M1448.91,162.99l-53.83-123.3h3.96l32.16,73.43c11.69,26.83,17.02,38.69,19.26,44.71h.17c2.41-5.5,9.29-20.29,19.95-42.99l35.08-75.15h3.96l-57.78,123.3h-2.92Z"/>
  </g>
  <style type="text/css">
    rect{fill:url(#MyGradient)}
  </style>
  <defs>
    <linearGradient id="MyGradient" gradientTransform="rotate(90)">
      <stop offset="0%" stop-color="#1EA3EC" />
      <stop offset="100%" stop-color="#2E5FA9" />
    </linearGradient>
  </defs>
</svg>